<?xml version="1.0" encoding="UTF-8"?>
<svg width="13px" height="13px" viewBox="0 0 13 13" version="1.1" xmlns="http://www.w3.org/2000/svg" xmlns:xlink="http://www.w3.org/1999/xlink">
    <!-- Generator: sketchtool 52.3 (67297) - http://www.bohemiancoding.com/sketch -->
    <title>13078B34-836E-443E-917D-555F83F396EA</title>
    <desc>Created with sketchtool.</desc>
    <defs>
        <path d="M106.832952,1174.02094 C107.055247,1174.24319 107.055247,1174.60826 106.835554,1174.82786 C106.727785,1174.93976 106.579991,1175 106.428087,1175 C106.278912,1175 106.13151,1174.93878 106.023222,1174.83052 L103.086942,1171.89479 C102.101387,1172.69699 100.870976,1173.14402 99.573067,1173.14402 C96.5008603,1173.14402 94,1170.64363 94,1167.57201 C94,1164.49944 96.4990136,1162 99.573067,1162 C102.646223,1162 105.146134,1164.49854 105.146134,1167.57201 C105.146134,1168.86967 104.699023,1170.09985 103.896673,1171.08522 L106.832952,1174.02094 Z M95.1459688,1167.57201 C95.1459688,1170.01201 97.1317684,1171.99827 99.5702714,1171.99827 C102.009604,1171.99827 103.994574,1170.01119 103.994574,1167.57201 C103.994574,1165.1334 102.010172,1163.14855 99.5702714,1163.14855 C97.1311993,1163.14855 95.1459688,1165.13257 95.1459688,1167.57201 Z" id="path-1"></path>
        <filter x="-15.4%" y="-15.4%" width="130.8%" height="130.8%" filterUnits="objectBoundingBox" id="filter-2">
            <feGaussianBlur stdDeviation="1.5" in="SourceAlpha" result="shadowBlurInner1"></feGaussianBlur>
            <feOffset dx="0" dy="1" in="shadowBlurInner1" result="shadowOffsetInner1"></feOffset>
            <feComposite in="shadowOffsetInner1" in2="SourceAlpha" operator="arithmetic" k2="-1" k3="1" result="shadowInnerInner1"></feComposite>
            <feColorMatrix values="0 0 0 0 0   0 0 0 0 0   0 0 0 0 0  0 0 0 0.5 0" type="matrix" in="shadowInnerInner1"></feColorMatrix>
        </filter>
    </defs>
    <g id="CP-Style-Guide" stroke="none" stroke-width="1" fill="none" fill-rule="evenodd">
        <g transform="translate(-94.000000, -1162.000000)" fill-rule="nonzero" id="search">
            <g>
                <use fill="#333333" xlink:href="#path-1"></use>
                <use fill="black" fill-opacity="1" filter="url(#filter-2)" xlink:href="#path-1"></use>
            </g>
        </g>
    </g>
</svg>